{"glyphs":{"0":{"ha":707,"x_min":76,"x_max":707,"o":"m 686 884 l 543 751 l 295 751 l 176 884 l 686 884 m 609 0 l 98 0 l 241 131 l 489 131 l 609 0 m 234 335 l 218 157 l 76 25 l 105 367 l 159 417 l 234 335 m 119 516 l 148 859 l 268 727 l 253 549 l 163 466 l 119 516 m 664 367 l 635 25 l 515 157 l 530 335 l 620 417 l 664 367 m 549 549 l 564 727 l 707 859 l 678 516 l 624 466 l 549 549 z "},"1":{"ha":396,"x_min":146,"x_max":338,"o":"m 295 367 l 266 25 l 146 157 l 162 335 l 251 417 l 295 367 m 181 549 l 196 727 l 338 859 l 309 516 l 255 466 l 181 549 z "},"2":{"ha":707,"x_min":76,"x_max":707,"o":"m 686 884 l 543 751 l 295 751 l 176 884 l 686 884 m 609 0 l 98 0 l 241 131 l 489 131 l 609 0 m 234 335 l 218 157 l 76 25 l 105 367 l 159 417 l 234 335 m 549 549 l 564 727 l 707 859 l 678 516 l 624 466 l 549 549 m 538 508 l 598 442 l 527 376 l 246 376 l 187 442 l 258 508 l 538 508 z "},"3":{"ha":707,"x_min":98,"x_max":707,"o":"m 686 884 l 543 751 l 295 751 l 176 884 l 686 884 m 609 0 l 98 0 l 241 131 l 489 131 l 609 0 m 664 367 l 635 25 l 515 157 l 530 335 l 620 417 l 664 367 m 549 549 l 564 727 l 707 859 l 678 516 l 624 466 l 549 549 m 538 508 l 598 442 l 527 376 l 246 376 l 187 442 l 258 508 l 538 508 z "},"4":{"ha":707,"x_min":119,"x_max":707,"o":"m 119 516 l 148 859 l 268 727 l 253 549 l 163 466 l 119 516 m 664 367 l 635 25 l 515 157 l 530 335 l 620 417 l 664 367 m 549 549 l 564 727 l 707 859 l 678 516 l 624 466 l 549 549 m 538 508 l 598 442 l 527 376 l 246 376 l 187 442 l 258 508 l 538 508 z "},"5":{"ha":707,"x_min":98,"x_max":686,"o":"m 686 884 l 543 751 l 295 751 l 176 884 l 686 884 m 609 0 l 98 0 l 241 131 l 489 131 l 609 0 m 119 516 l 148 859 l 268 727 l 253 549 l 163 466 l 119 516 m 664 367 l 635 25 l 515 157 l 530 335 l 620 417 l 664 367 m 538 508 l 598 442 l 527 376 l 246 376 l 187 442 l 258 508 l 538 508 z "},"6":{"ha":707,"x_min":76,"x_max":686,"o":"m 686 884 l 543 751 l 295 751 l 176 884 l 686 884 m 609 0 l 98 0 l 241 131 l 489 131 l 609 0 m 234 335 l 218 157 l 76 25 l 105 367 l 159 417 l 234 335 m 119 516 l 148 859 l 268 727 l 253 549 l 163 466 l 119 516 m 664 367 l 635 25 l 515 157 l 530 335 l 620 417 l 664 367 m 538 508 l 598 442 l 527 376 l 246 376 l 187 442 l 258 508 l 538 508 z "},"7":{"ha":707,"x_min":176,"x_max":707,"o":"m 686 884 l 543 751 l 295 751 l 176 884 l 686 884 m 664 367 l 635 25 l 515 157 l 530 335 l 620 417 l 664 367 m 549 549 l 564 727 l 707 859 l 678 516 l 624 466 l 549 549 z "},"8":{"ha":707,"x_min":76,"x_max":707,"o":"m 686 884 l 543 751 l 295 751 l 176 884 l 686 884 m 609 0 l 98 0 l 241 131 l 489 131 l 609 0 m 234 335 l 218 157 l 76 25 l 105 367 l 159 417 l 234 335 m 119 516 l 148 859 l 268 727 l 253 549 l 163 466 l 119 516 m 664 367 l 635 25 l 515 157 l 530 335 l 620 417 l 664 367 m 549 549 l 564 727 l 707 859 l 678 516 l 624 466 l 549 549 m 538 508 l 598 442 l 527 376 l 246 376 l 187 442 l 258 508 l 538 508 z "},"9":{"ha":707,"x_min":98,"x_max":707,"o":"m 686 884 l 543 751 l 295 751 l 176 884 l 686 884 m 609 0 l 98 0 l 241 131 l 489 131 l 609 0 m 119 516 l 148 859 l 268 727 l 253 549 l 163 466 l 119 516 m 664 367 l 635 25 l 515 157 l 530 335 l 620 417 l 664 367 m 549 549 l 564 727 l 707 859 l 678 516 l 624 466 l 549 549 m 538 508 l 598 442 l 527 376 l 246 376 l 187 442 l 258 508 l 538 508 z "}," ":{"ha":328,"x_min":0,"x_max":0,"o":""},"!":{"ha":396,"x_min":117,"x_max":341,"o":"m 295 367 l 264 0 l 144 131 l 162 335 l 251 417 l 295 367 m 181 549 l 198 751 l 341 884 l 309 516 l 255 466 l 181 549 m 249 -177 l 117 -177 l 128 -59 l 259 -59 l 249 -177 z "},"\"":{"ha":429,"x_min":121,"x_max":447,"o":"m 253 708 l 181 641 l 121 708 l 136 884 l 268 884 l 253 708 m 432 708 l 360 641 l 299 708 l 314 884 l 447 884 l 432 708 z "},"#":{"ha":840,"x_min":98,"x_max":813,"o":"m 399 379 l 327 313 l 266 379 l 273 446 l 343 511 l 405 446 l 399 379 m 540 289 l 468 223 l 409 223 l 350 289 l 422 355 l 481 355 l 540 289 m 301 289 l 229 223 l 158 223 l 98 289 l 170 355 l 241 355 l 301 289 m 375 98 l 302 33 l 242 98 l 251 198 l 322 264 l 384 198 l 375 98 m 639 379 l 568 313 l 506 379 l 513 446 l 585 511 l 645 446 l 639 379 m 792 289 l 720 223 l 649 223 l 590 289 l 662 355 l 732 355 l 792 289 m 615 98 l 543 33 l 482 98 l 491 198 l 563 264 l 624 198 l 615 98 m 420 626 l 348 561 l 288 626 l 298 737 l 370 804 l 431 737 l 420 626 m 562 535 l 491 470 l 432 470 l 371 535 l 443 601 l 503 601 l 562 535 m 322 535 l 251 470 l 181 470 l 120 535 l 192 601 l 263 601 l 322 535 m 660 626 l 590 561 l 528 626 l 538 737 l 611 804 l 670 737 l 660 626 m 813 535 l 742 470 l 672 470 l 611 535 l 683 601 l 754 601 l 813 535 z "},"$":{"ha":707,"x_min":80,"x_max":705,"o":"m 484 913 l 352 913 l 362 1019 l 433 1085 l 494 1019 l 484 913 m 393 -136 l 321 -202 l 261 -136 l 270 -29 l 402 -29 l 393 -136 m 705 818 l 633 751 l 295 751 l 236 818 l 307 884 l 644 884 l 705 818 m 646 157 l 574 91 l 515 157 l 530 335 l 620 417 l 664 367 l 646 157 m 598 442 l 527 376 l 246 376 l 187 442 l 258 508 l 538 508 l 598 442 m 253 549 l 163 466 l 119 516 l 136 727 l 208 793 l 268 727 l 253 549 m 549 66 l 477 0 l 139 0 l 80 66 l 150 131 l 489 131 l 549 66 z "},"%":{"ha":971,"x_min":128,"x_max":933,"o":"m 438 821 l 365 755 l 295 755 l 236 821 l 308 888 l 378 888 l 438 821 m 413 534 l 340 467 l 270 467 l 211 534 l 283 600 l 352 600 l 413 534 m 128 624 l 188 562 l 259 624 l 269 730 l 208 797 l 138 730 l 128 624 m 379 624 l 389 730 l 460 797 l 520 730 l 510 624 l 439 562 l 379 624 m 837 355 l 765 289 l 697 289 l 636 355 l 708 422 l 777 422 l 837 355 m 812 74 l 741 9 l 673 9 l 611 74 l 684 140 l 753 140 l 812 74 m 528 164 l 588 102 l 660 164 l 669 265 l 609 331 l 537 265 l 528 164 m 779 164 l 788 265 l 860 331 l 919 265 l 910 164 l 840 102 l 779 164 m 552 607 l 750 904 l 933 952 l 641 513 l 572 496 l 552 607 m 556 385 l 244 -83 l 212 96 l 428 422 l 544 453 l 556 385 z "},"&":{"ha":755,"x_min":87,"x_max":779,"o":"m 615 818 l 543 751 l 295 751 l 236 818 l 307 884 l 554 884 l 615 818 m 678 516 l 624 466 l 549 549 l 554 602 l 625 668 l 686 602 l 678 516 m 646 157 l 574 91 l 515 157 l 530 335 l 620 417 l 664 367 l 646 157 m 598 442 l 527 376 l 246 376 l 187 442 l 258 508 l 538 508 l 598 442 m 253 549 l 163 466 l 119 516 l 136 727 l 208 793 l 268 727 l 253 549 m 549 66 l 477 0 l 230 0 l 170 66 l 241 131 l 489 131 l 549 66 m 218 157 l 146 91 l 87 157 l 105 367 l 159 417 l 234 335 l 218 157 m 707 376 l 648 442 l 718 508 l 779 442 l 707 376 z "},"'":{"ha":250,"x_min":121,"x_max":268,"o":"m 253 708 l 181 641 l 121 708 l 136 884 l 268 884 l 253 708 z "},"(":{"ha":436,"x_min":73,"x_max":484,"o":"m 239 549 l 149 466 l 105 516 l 122 727 l 194 793 l 254 727 l 239 549 m 73 157 l 133 91 l 205 157 l 220 335 l 145 417 l 91 367 l 73 157 m 282 751 l 221 818 l 293 884 l 484 884 l 340 751 l 282 751 m 216 0 l 155 66 l 227 131 l 285 131 l 407 0 l 216 0 z "},")":{"ha":436,"x_min":29,"x_max":441,"o":"m 359 818 l 287 751 l 227 751 l 106 884 l 298 884 l 359 818 m 423 516 l 369 466 l 293 549 l 308 727 l 381 793 l 441 727 l 423 516 m 391 157 l 319 91 l 259 157 l 274 335 l 365 417 l 409 367 l 391 157 m 293 66 l 221 0 l 29 0 l 173 131 l 232 131 l 293 66 z "},"*":{"ha":676,"x_min":95,"x_max":679,"o":"m 139 633 l 122 722 l 215 746 l 297 698 l 359 581 l 227 581 l 139 633 m 558 378 l 652 402 l 634 491 l 548 549 l 415 549 l 476 431 l 558 378 m 431 306 l 359 240 l 298 306 l 307 407 l 384 529 l 441 412 l 431 306 m 467 715 l 389 595 l 335 715 l 343 818 l 414 884 l 476 818 l 467 715 m 182 378 l 95 402 l 126 491 l 225 543 l 356 543 l 273 424 l 182 378 m 552 585 l 419 585 l 500 702 l 591 746 l 679 722 l 646 633 l 552 585 z "},"+":{"ha":653,"x_min":98,"x_max":633,"o":"m 439 533 l 367 466 l 307 533 l 317 644 l 389 710 l 449 644 l 439 533 m 633 442 l 561 376 l 449 376 l 390 442 l 461 508 l 572 508 l 633 442 m 341 442 l 269 376 l 158 376 l 98 442 l 169 508 l 280 508 l 341 442 m 414 240 l 342 174 l 282 240 l 290 351 l 364 417 l 423 351 l 414 240 z "},",":{"ha":250,"x_min":52,"x_max":199,"o":"m 183 -81 l 112 -146 l 52 -81 l 68 95 l 199 95 l 183 -81 z "},"-":{"ha":653,"x_min":98,"x_max":633,"o":"m 633 442 l 561 376 l 158 376 l 98 442 l 169 508 l 572 508 l 633 442 z "},".":{"ha":250,"x_min":59,"x_max":202,"o":"m 59 0 l 71 131 l 202 131 l 191 0 l 59 0 z "},"/":{"ha":681,"x_min":42,"x_max":734,"o":"m 361 374 l 74 -53 l 42 128 l 234 412 l 350 441 l 361 374 m 356 597 l 548 884 l 734 931 l 447 503 l 379 485 l 356 597 z "},":":{"ha":308,"x_min":88,"x_max":285,"o":"m 88 0 l 100 131 l 232 131 l 221 0 l 88 0 m 141 605 l 153 736 l 285 736 l 274 605 l 141 605 z "},";":{"ha":308,"x_min":81,"x_max":285,"o":"m 141 605 l 153 736 l 285 736 l 274 605 l 141 605 m 213 -81 l 141 -146 l 81 -81 l 97 95 l 230 95 l 213 -81 z "},"<":{"ha":495,"x_min":96,"x_max":500,"o":"m 492 644 l 285 458 l 100 458 l 407 737 l 500 737 l 492 644 m 448 146 l 355 146 l 96 423 l 282 423 l 457 239 l 448 146 z "},"=":{"ha":653,"x_min":88,"x_max":641,"o":"m 641 554 l 571 489 l 168 489 l 107 554 l 179 621 l 582 621 l 641 554 m 622 330 l 551 263 l 148 263 l 88 330 l 159 395 l 562 395 l 622 330 z "},">":{"ha":495,"x_min":72,"x_max":476,"o":"m 476 458 l 289 458 l 116 644 l 124 737 l 217 737 l 476 458 m 472 423 l 165 146 l 72 146 l 81 239 l 285 423 l 472 423 z "},"?":{"ha":707,"x_min":57,"x_max":696,"o":"m 678 516 l 624 466 l 549 549 l 564 727 l 636 793 l 696 727 l 678 516 m 615 818 l 543 751 l 270 751 l 150 884 l 554 884 l 615 818 m 216 131 l 73 0 l 105 367 l 159 417 l 234 335 l 216 131 m 538 508 l 598 442 l 527 376 l 246 376 l 187 442 l 258 508 l 538 508 m 201 -49 l 69 -49 l 57 -181 l 188 -181 l 201 -49 z "},"@":{"ha":855,"x_min":87,"x_max":855,"o":"m 838 660 l 784 610 l 708 693 l 711 727 l 855 859 l 838 660 m 832 884 l 689 751 l 295 751 l 236 818 l 307 884 l 832 884 m 758 586 l 686 520 l 466 520 l 407 586 l 477 652 l 697 652 l 758 586 m 801 236 l 679 367 l 689 479 l 780 561 l 824 511 l 801 236 m 253 549 l 163 466 l 119 516 l 136 727 l 208 793 l 268 727 l 253 549 m 774 211 l 456 211 l 395 277 l 467 343 l 654 343 l 774 211 m 443 367 l 372 302 l 311 367 l 323 511 l 379 561 l 453 479 l 443 367 m 105 367 l 159 417 l 234 335 l 218 157 l 146 91 l 87 157 l 105 367 m 230 0 l 170 66 l 241 131 l 749 131 l 811 66 l 737 0 l 230 0 z "},"A":{"ha":707,"x_min":73,"x_max":707,"o":"m 686 884 l 543 751 l 295 751 l 176 884 l 686 884 m 234 335 l 216 131 l 73 0 l 105 367 l 159 417 l 234 335 m 119 516 l 148 859 l 268 727 l 253 549 l 163 466 l 119 516 m 664 367 l 633 0 l 513 131 l 530 335 l 620 417 l 664 367 m 549 549 l 564 727 l 707 859 l 678 516 l 624 466 l 549 549 m 538 508 l 598 442 l 527 376 l 246 376 l 187 442 l 258 508 l 538 508 z "},"B":{"ha":707,"x_min":76,"x_max":696,"o":"m 234 335 l 218 157 l 76 25 l 105 367 l 159 417 l 234 335 m 119 516 l 148 859 l 268 727 l 253 549 l 163 466 l 119 516 m 538 508 l 598 442 l 527 376 l 246 376 l 187 442 l 258 508 l 538 508 m 98 0 l 241 131 l 489 131 l 549 66 l 477 0 l 98 0 m 678 516 l 624 466 l 549 549 l 564 727 l 636 793 l 696 727 l 678 516 m 615 818 l 543 751 l 295 751 l 176 884 l 554 884 l 615 818 m 646 157 l 574 91 l 515 157 l 530 335 l 620 417 l 664 367 l 646 157 z "},"C":{"ha":707,"x_min":87,"x_max":710,"o":"m 230 0 l 170 66 l 241 131 l 513 131 l 633 0 l 230 0 m 710 884 l 567 751 l 295 751 l 236 818 l 307 884 l 710 884 m 253 549 l 163 466 l 119 516 l 136 727 l 208 793 l 268 727 l 253 549 m 87 157 l 146 91 l 218 157 l 234 335 l 159 417 l 105 367 l 87 157 z "},"D":{"ha":707,"x_min":76,"x_max":696,"o":"m 234 335 l 218 157 l 76 25 l 105 367 l 159 417 l 234 335 m 119 516 l 148 859 l 268 727 l 253 549 l 163 466 l 119 516 m 98 0 l 241 131 l 489 131 l 549 66 l 477 0 l 98 0 m 678 516 l 624 466 l 549 549 l 564 727 l 636 793 l 696 727 l 678 516 m 615 818 l 543 751 l 295 751 l 176 884 l 554 884 l 615 818 m 646 157 l 574 91 l 515 157 l 530 335 l 620 417 l 664 367 l 646 157 z "},"E":{"ha":707,"x_min":76,"x_max":710,"o":"m 710 884 l 567 751 l 295 751 l 176 884 l 710 884 m 633 0 l 98 0 l 241 131 l 513 131 l 633 0 m 234 335 l 218 157 l 76 25 l 105 367 l 159 417 l 234 335 m 119 516 l 148 859 l 268 727 l 253 549 l 163 466 l 119 516 m 538 508 l 598 442 l 527 376 l 246 376 l 187 442 l 258 508 l 538 508 z "},"F":{"ha":707,"x_min":76,"x_max":710,"o":"m 710 884 l 567 751 l 295 751 l 176 884 l 710 884 m 234 335 l 218 157 l 76 25 l 105 367 l 159 417 l 234 335 m 119 516 l 148 859 l 268 727 l 253 549 l 163 466 l 119 516 m 538 508 l 598 442 l 527 376 l 246 376 l 187 442 l 258 508 l 538 508 z "},"G":{"ha":707,"x_min":87,"x_max":710,"o":"m 710 884 l 567 751 l 295 751 l 236 818 l 307 884 l 710 884 m 600 460 l 528 394 l 379 394 l 319 460 l 390 527 l 539 527 l 600 460 m 254 567 l 165 485 l 120 534 l 136 727 l 208 793 l 268 727 l 254 567 m 218 157 l 146 91 l 87 157 l 107 386 l 160 436 l 235 354 l 218 157 m 477 0 l 549 66 l 489 131 l 241 131 l 170 66 l 230 0 l 477 0 m 646 157 l 574 91 l 515 157 l 532 354 l 621 436 l 667 386 l 646 157 z "},"H":{"ha":707,"x_min":73,"x_max":710,"o":"m 234 335 l 216 131 l 73 0 l 105 367 l 159 417 l 234 335 m 119 516 l 150 884 l 270 751 l 253 549 l 163 466 l 119 516 m 664 367 l 633 0 l 513 131 l 530 335 l 620 417 l 664 367 m 549 549 l 567 751 l 710 884 l 678 516 l 624 466 l 549 549 m 538 508 l 598 442 l 527 376 l 246 376 l 187 442 l 258 508 l 538 508 z "},"I":{"ha":396,"x_min":144,"x_max":341,"o":"m 295 367 l 264 0 l 144 131 l 162 335 l 251 417 l 295 367 m 181 549 l 198 751 l 341 884 l 309 516 l 255 466 l 181 549 z "},"J":{"ha":707,"x_min":87,"x_max":710,"o":"m 646 157 l 574 91 l 515 157 l 530 335 l 620 417 l 664 367 l 646 157 m 87 157 l 146 91 l 218 157 l 229 275 l 154 359 l 100 308 l 87 157 m 230 0 l 170 66 l 241 131 l 489 131 l 549 66 l 477 0 l 230 0 m 549 549 l 567 751 l 710 884 l 678 516 l 624 466 l 549 549 z "},"K":{"ha":707,"x_min":73,"x_max":664,"o":"m 234 335 l 216 131 l 73 0 l 105 367 l 159 417 l 234 335 m 119 516 l 150 884 l 270 751 l 253 549 l 163 466 l 119 516 m 664 367 l 633 0 l 513 131 l 530 335 l 620 417 l 664 367 m 538 508 l 598 442 l 527 376 l 246 376 l 187 442 l 258 508 l 538 508 m 562 884 l 655 884 l 648 789 l 379 543 l 285 543 l 293 638 l 562 884 z "},"L":{"ha":707,"x_min":76,"x_max":633,"o":"m 633 0 l 98 0 l 241 131 l 513 131 l 633 0 m 234 335 l 218 157 l 76 25 l 105 367 l 159 417 l 234 335 m 119 516 l 150 884 l 270 751 l 253 549 l 163 466 l 119 516 z "},"M":{"ha":707,"x_min":73,"x_max":707,"o":"m 686 884 l 543 751 l 295 751 l 176 884 l 686 884 m 234 335 l 216 131 l 73 0 l 105 367 l 159 417 l 234 335 m 119 516 l 148 859 l 268 727 l 253 549 l 163 466 l 119 516 m 664 367 l 633 0 l 513 131 l 530 335 l 620 417 l 664 367 m 549 549 l 564 727 l 707 859 l 678 516 l 624 466 l 549 549 m 348 655 l 422 721 l 481 655 l 458 396 l 388 330 l 326 396 l 348 655 z "},"N":{"ha":707,"x_min":73,"x_max":710,"o":"m 234 335 l 216 131 l 73 0 l 105 367 l 159 417 l 234 335 m 119 516 l 150 884 l 270 751 l 253 549 l 163 466 l 119 516 m 664 367 l 633 0 l 513 131 l 530 335 l 620 417 l 664 367 m 549 549 l 567 751 l 710 884 l 678 516 l 624 466 l 549 549 m 186 884 l 378 884 l 533 703 l 524 609 l 431 609 l 186 884 z "},"O":{"ha":707,"x_min":87,"x_max":696,"o":"m 678 516 l 624 466 l 549 549 l 564 727 l 636 793 l 696 727 l 678 516 m 615 818 l 543 751 l 295 751 l 236 818 l 307 884 l 554 884 l 615 818 m 646 157 l 574 91 l 515 157 l 530 335 l 620 417 l 664 367 l 646 157 m 253 549 l 163 466 l 119 516 l 136 727 l 208 793 l 268 727 l 253 549 m 87 157 l 146 91 l 218 157 l 234 335 l 159 417 l 105 367 l 87 157 m 230 0 l 170 66 l 241 131 l 489 131 l 549 66 l 477 0 l 230 0 z "},"P":{"ha":707,"x_min":73,"x_max":696,"o":"m 234 335 l 216 131 l 73 0 l 105 367 l 159 417 l 234 335 m 119 516 l 148 859 l 268 727 l 253 549 l 163 466 l 119 516 m 538 508 l 598 442 l 527 376 l 246 376 l 187 442 l 258 508 l 538 508 m 678 516 l 624 466 l 549 549 l 564 727 l 636 793 l 696 727 l 678 516 m 615 818 l 543 751 l 295 751 l 176 884 l 554 884 l 615 818 z "},"Q":{"ha":707,"x_min":87,"x_max":696,"o":"m 679 534 l 626 485 l 551 567 l 564 727 l 636 793 l 696 727 l 679 534 m 615 818 l 543 751 l 295 751 l 236 818 l 307 884 l 554 884 l 615 818 m 657 275 l 586 210 l 525 275 l 532 352 l 621 434 l 667 385 l 657 275 m 254 567 l 165 485 l 120 534 l 136 727 l 208 793 l 268 727 l 254 567 m 87 157 l 146 91 l 218 157 l 235 352 l 160 434 l 107 385 l 87 157 m 230 0 l 170 66 l 241 131 l 370 131 l 431 66 l 359 0 l 230 0 m 396 157 l 404 251 l 499 251 l 641 95 l 633 0 l 539 0 l 396 157 z "},"R":{"ha":707,"x_min":73,"x_max":696,"o":"m 285 253 l 294 346 l 389 346 l 620 95 l 611 0 l 516 0 l 285 253 m 234 335 l 216 131 l 73 0 l 105 367 l 159 417 l 234 335 m 119 516 l 148 859 l 268 727 l 253 549 l 163 466 l 119 516 m 538 508 l 598 442 l 527 376 l 246 376 l 187 442 l 258 508 l 538 508 m 678 516 l 624 466 l 549 549 l 564 727 l 636 793 l 696 727 l 678 516 m 615 818 l 543 751 l 295 751 l 176 884 l 554 884 l 615 818 z "},"S":{"ha":707,"x_min":80,"x_max":705,"o":"m 705 818 l 633 751 l 295 751 l 236 818 l 307 884 l 644 884 l 705 818 m 646 157 l 574 91 l 515 157 l 530 335 l 620 417 l 664 367 l 646 157 m 253 549 l 163 466 l 119 516 l 136 727 l 208 793 l 268 727 l 253 549 m 139 0 l 80 66 l 150 131 l 489 131 l 549 66 l 477 0 l 139 0 m 538 508 l 598 442 l 527 376 l 246 376 l 187 442 l 258 508 l 538 508 z "},"T":{"ha":707,"x_min":116,"x_max":735,"o":"m 424 61 l 354 -5 l 293 61 l 317 335 l 407 417 l 451 367 l 424 61 m 465 516 l 410 466 l 336 549 l 345 650 l 417 716 l 476 650 l 465 516 m 735 818 l 662 751 l 176 751 l 116 818 l 187 884 l 673 884 l 735 818 z "},"U":{"ha":707,"x_min":87,"x_max":710,"o":"m 646 157 l 574 91 l 515 157 l 530 335 l 620 417 l 664 367 l 646 157 m 87 157 l 146 91 l 218 157 l 234 335 l 159 417 l 105 367 l 87 157 m 230 0 l 170 66 l 241 131 l 489 131 l 549 66 l 477 0 l 230 0 m 678 516 l 624 466 l 549 549 l 567 751 l 710 884 l 678 516 m 150 884 l 270 751 l 253 549 l 163 466 l 119 516 l 150 884 z "},"V":{"ha":678,"x_min":78,"x_max":710,"o":"m 679 529 l 625 480 l 551 563 l 567 751 l 710 884 l 679 529 m 254 563 l 164 480 l 120 529 l 150 884 l 270 751 l 254 563 m 621 431 l 602 314 l 345 63 l 251 63 l 260 157 l 515 408 l 621 431 m 210 63 l 139 -4 l 78 63 l 106 381 l 160 431 l 235 347 l 210 63 z "},"W":{"ha":707,"x_min":76,"x_max":710,"o":"m 678 516 l 624 466 l 549 549 l 567 751 l 710 884 l 678 516 m 253 549 l 163 466 l 119 516 l 150 884 l 270 751 l 253 549 m 635 25 l 515 157 l 530 335 l 620 417 l 664 367 l 635 25 m 444 227 l 372 162 l 312 227 l 335 487 l 407 554 l 467 487 l 444 227 m 609 0 l 98 0 l 241 131 l 489 131 l 609 0 m 218 157 l 76 25 l 105 367 l 159 417 l 234 335 l 218 157 z "},"X":{"ha":678,"x_min":73,"x_max":710,"o":"m 419 466 l 432 611 l 634 884 l 710 884 l 698 755 l 486 466 l 419 466 m 303 466 l 139 755 l 150 884 l 227 884 l 383 611 l 370 466 l 303 466 m 366 417 l 354 271 l 152 0 l 73 0 l 85 129 l 299 417 l 366 417 m 482 417 l 644 129 l 633 0 l 557 0 l 403 273 l 415 417 l 482 417 z "},"Y":{"ha":707,"x_min":119,"x_max":710,"o":"m 678 516 l 624 466 l 549 549 l 567 751 l 710 884 l 678 516 m 119 516 l 163 466 l 253 549 l 270 751 l 150 884 l 119 516 m 188 0 l 129 66 l 199 131 l 489 131 l 549 66 l 477 0 l 188 0 m 646 157 l 574 91 l 515 157 l 530 335 l 620 417 l 664 367 l 646 157 m 538 508 l 598 442 l 527 376 l 246 376 l 187 442 l 258 508 l 538 508 z "},"Z":{"ha":707,"x_min":80,"x_max":705,"o":"m 705 818 l 633 751 l 270 751 l 150 884 l 644 884 l 705 818 m 621 624 l 503 467 l 384 455 l 385 524 l 537 721 l 630 721 l 621 624 m 372 321 l 251 162 l 153 162 l 160 253 l 297 429 l 367 436 l 372 321 m 617 0 l 139 0 l 80 66 l 150 131 l 497 131 l 617 0 z "},"[":{"ha":436,"x_min":62,"x_max":484,"o":"m 484 884 l 340 751 l 282 751 l 160 884 l 484 884 m 407 0 l 83 0 l 227 131 l 285 131 l 407 0 m 220 335 l 205 157 l 62 25 l 91 367 l 145 417 l 220 335 m 105 516 l 134 859 l 254 727 l 239 549 l 149 466 l 105 516 z "},"\\":{"ha":682,"x_min":110,"x_max":662,"o":"m 429 597 l 389 485 l 323 503 l 110 931 l 287 884 l 429 597 m 662 128 l 597 -53 l 386 374 l 410 441 l 521 412 l 662 128 z "},"]":{"ha":436,"x_min":29,"x_max":452,"o":"m 429 884 l 287 751 l 227 751 l 106 884 l 429 884 m 423 516 l 369 466 l 293 549 l 308 727 l 452 859 l 423 516 m 380 25 l 259 157 l 274 335 l 365 417 l 409 367 l 380 25 m 352 0 l 29 0 l 173 131 l 232 131 l 352 0 z "},"^":{"ha":644,"x_min":107,"x_max":640,"o":"m 539 544 l 399 697 l 415 884 l 640 638 l 633 544 l 539 544 m 107 544 l 115 638 l 381 884 l 365 697 l 199 544 l 107 544 z "},"_":{"ha":654,"x_min":-15,"x_max":639,"o":"m 639 -170 l 568 -236 l 45 -236 l -15 -170 l 57 -105 l 580 -105 l 639 -170 z "},"`":{"ha":336,"x_min":134,"x_max":341,"o":"m 341 734 l 309 644 l 221 668 l 134 846 l 251 913 l 341 734 z "},"a":{"ha":707,"x_min":73,"x_max":707,"o":"m 686 884 l 543 751 l 295 751 l 176 884 l 686 884 m 234 335 l 216 131 l 73 0 l 105 367 l 159 417 l 234 335 m 119 516 l 148 859 l 268 727 l 253 549 l 163 466 l 119 516 m 664 367 l 633 0 l 513 131 l 530 335 l 620 417 l 664 367 m 549 549 l 564 727 l 707 859 l 678 516 l 624 466 l 549 549 m 538 508 l 598 442 l 527 376 l 246 376 l 187 442 l 258 508 l 538 508 z "},"b":{"ha":707,"x_min":76,"x_max":696,"o":"m 234 335 l 218 157 l 76 25 l 105 367 l 159 417 l 234 335 m 119 516 l 148 859 l 268 727 l 253 549 l 163 466 l 119 516 m 538 508 l 598 442 l 527 376 l 246 376 l 187 442 l 258 508 l 538 508 m 98 0 l 241 131 l 489 131 l 549 66 l 477 0 l 98 0 m 678 516 l 624 466 l 549 549 l 564 727 l 636 793 l 696 727 l 678 516 m 615 818 l 543 751 l 295 751 l 176 884 l 554 884 l 615 818 m 646 157 l 574 91 l 515 157 l 530 335 l 620 417 l 664 367 l 646 157 z "},"c":{"ha":707,"x_min":87,"x_max":710,"o":"m 230 0 l 170 66 l 241 131 l 513 131 l 633 0 l 230 0 m 710 884 l 567 751 l 295 751 l 236 818 l 307 884 l 710 884 m 253 549 l 163 466 l 119 516 l 136 727 l 208 793 l 268 727 l 253 549 m 87 157 l 146 91 l 218 157 l 234 335 l 159 417 l 105 367 l 87 157 z "},"d":{"ha":707,"x_min":76,"x_max":696,"o":"m 234 335 l 218 157 l 76 25 l 105 367 l 159 417 l 234 335 m 119 516 l 148 859 l 268 727 l 253 549 l 163 466 l 119 516 m 98 0 l 241 131 l 489 131 l 549 66 l 477 0 l 98 0 m 678 516 l 624 466 l 549 549 l 564 727 l 636 793 l 696 727 l 678 516 m 615 818 l 543 751 l 295 751 l 176 884 l 554 884 l 615 818 m 646 157 l 574 91 l 515 157 l 530 335 l 620 417 l 664 367 l 646 157 z "},"e":{"ha":707,"x_min":76,"x_max":710,"o":"m 710 884 l 567 751 l 295 751 l 176 884 l 710 884 m 633 0 l 98 0 l 241 131 l 513 131 l 633 0 m 234 335 l 218 157 l 76 25 l 105 367 l 159 417 l 234 335 m 119 516 l 148 859 l 268 727 l 253 549 l 163 466 l 119 516 m 538 508 l 598 442 l 527 376 l 246 376 l 187 442 l 258 508 l 538 508 z "},"f":{"ha":707,"x_min":76,"x_max":710,"o":"m 710 884 l 567 751 l 295 751 l 176 884 l 710 884 m 234 335 l 218 157 l 76 25 l 105 367 l 159 417 l 234 335 m 119 516 l 148 859 l 268 727 l 253 549 l 163 466 l 119 516 m 538 508 l 598 442 l 527 376 l 246 376 l 187 442 l 258 508 l 538 508 z "},"g":{"ha":707,"x_min":87,"x_max":710,"o":"m 710 884 l 567 751 l 295 751 l 236 818 l 307 884 l 710 884 m 600 460 l 528 394 l 379 394 l 319 460 l 390 527 l 539 527 l 600 460 m 254 567 l 165 485 l 120 534 l 136 727 l 208 793 l 268 727 l 254 567 m 218 157 l 146 91 l 87 157 l 107 386 l 160 436 l 235 354 l 218 157 m 477 0 l 549 66 l 489 131 l 241 131 l 170 66 l 230 0 l 477 0 m 646 157 l 574 91 l 515 157 l 532 354 l 621 436 l 667 386 l 646 157 z "},"h":{"ha":707,"x_min":73,"x_max":710,"o":"m 234 335 l 216 131 l 73 0 l 105 367 l 159 417 l 234 335 m 119 516 l 150 884 l 270 751 l 253 549 l 163 466 l 119 516 m 664 367 l 633 0 l 513 131 l 530 335 l 620 417 l 664 367 m 549 549 l 567 751 l 710 884 l 678 516 l 624 466 l 549 549 m 538 508 l 598 442 l 527 376 l 246 376 l 187 442 l 258 508 l 538 508 z "},"i":{"ha":396,"x_min":144,"x_max":341,"o":"m 295 367 l 264 0 l 144 131 l 162 335 l 251 417 l 295 367 m 181 549 l 198 751 l 341 884 l 309 516 l 255 466 l 181 549 z "},"j":{"ha":707,"x_min":87,"x_max":710,"o":"m 646 157 l 574 91 l 515 157 l 530 335 l 620 417 l 664 367 l 646 157 m 87 157 l 146 91 l 218 157 l 229 275 l 154 359 l 100 308 l 87 157 m 230 0 l 170 66 l 241 131 l 489 131 l 549 66 l 477 0 l 230 0 m 549 549 l 567 751 l 710 884 l 678 516 l 624 466 l 549 549 z "},"k":{"ha":707,"x_min":73,"x_max":664,"o":"m 234 335 l 216 131 l 73 0 l 105 367 l 159 417 l 234 335 m 119 516 l 150 884 l 270 751 l 253 549 l 163 466 l 119 516 m 664 367 l 633 0 l 513 131 l 530 335 l 620 417 l 664 367 m 538 508 l 598 442 l 527 376 l 246 376 l 187 442 l 258 508 l 538 508 m 562 884 l 655 884 l 648 789 l 379 543 l 285 543 l 293 638 l 562 884 z "},"l":{"ha":707,"x_min":76,"x_max":633,"o":"m 633 0 l 98 0 l 241 131 l 513 131 l 633 0 m 234 335 l 218 157 l 76 25 l 105 367 l 159 417 l 234 335 m 119 516 l 150 884 l 270 751 l 253 549 l 163 466 l 119 516 z "},"m":{"ha":707,"x_min":73,"x_max":707,"o":"m 686 884 l 543 751 l 295 751 l 176 884 l 686 884 m 234 335 l 216 131 l 73 0 l 105 367 l 159 417 l 234 335 m 119 516 l 148 859 l 268 727 l 253 549 l 163 466 l 119 516 m 664 367 l 633 0 l 513 131 l 530 335 l 620 417 l 664 367 m 549 549 l 564 727 l 707 859 l 678 516 l 624 466 l 549 549 m 348 655 l 422 721 l 481 655 l 458 396 l 388 330 l 326 396 l 348 655 z "},"n":{"ha":707,"x_min":73,"x_max":710,"o":"m 234 335 l 216 131 l 73 0 l 105 367 l 159 417 l 234 335 m 119 516 l 150 884 l 270 751 l 253 549 l 163 466 l 119 516 m 664 367 l 633 0 l 513 131 l 530 335 l 620 417 l 664 367 m 549 549 l 567 751 l 710 884 l 678 516 l 624 466 l 549 549 m 186 884 l 378 884 l 533 703 l 524 609 l 431 609 l 186 884 z "},"o":{"ha":707,"x_min":87,"x_max":696,"o":"m 678 516 l 624 466 l 549 549 l 564 727 l 636 793 l 696 727 l 678 516 m 615 818 l 543 751 l 295 751 l 236 818 l 307 884 l 554 884 l 615 818 m 646 157 l 574 91 l 515 157 l 530 335 l 620 417 l 664 367 l 646 157 m 253 549 l 163 466 l 119 516 l 136 727 l 208 793 l 268 727 l 253 549 m 87 157 l 146 91 l 218 157 l 234 335 l 159 417 l 105 367 l 87 157 m 230 0 l 170 66 l 241 131 l 489 131 l 549 66 l 477 0 l 230 0 z "},"p":{"ha":707,"x_min":73,"x_max":696,"o":"m 234 335 l 216 131 l 73 0 l 105 367 l 159 417 l 234 335 m 119 516 l 148 859 l 268 727 l 253 549 l 163 466 l 119 516 m 538 508 l 598 442 l 527 376 l 246 376 l 187 442 l 258 508 l 538 508 m 678 516 l 624 466 l 549 549 l 564 727 l 636 793 l 696 727 l 678 516 m 615 818 l 543 751 l 295 751 l 176 884 l 554 884 l 615 818 z "},"q":{"ha":707,"x_min":87,"x_max":696,"o":"m 679 534 l 626 485 l 551 567 l 564 727 l 636 793 l 696 727 l 679 534 m 615 818 l 543 751 l 295 751 l 236 818 l 307 884 l 554 884 l 615 818 m 657 275 l 586 210 l 525 275 l 532 352 l 621 434 l 667 385 l 657 275 m 254 567 l 165 485 l 120 534 l 136 727 l 208 793 l 268 727 l 254 567 m 87 157 l 146 91 l 218 157 l 235 352 l 160 434 l 107 385 l 87 157 m 230 0 l 170 66 l 241 131 l 370 131 l 431 66 l 359 0 l 230 0 m 396 157 l 404 251 l 499 251 l 641 95 l 633 0 l 539 0 l 396 157 z "},"r":{"ha":707,"x_min":73,"x_max":696,"o":"m 285 253 l 294 346 l 389 346 l 620 95 l 611 0 l 516 0 l 285 253 m 234 335 l 216 131 l 73 0 l 105 367 l 159 417 l 234 335 m 119 516 l 148 859 l 268 727 l 253 549 l 163 466 l 119 516 m 538 508 l 598 442 l 527 376 l 246 376 l 187 442 l 258 508 l 538 508 m 678 516 l 624 466 l 549 549 l 564 727 l 636 793 l 696 727 l 678 516 m 615 818 l 543 751 l 295 751 l 176 884 l 554 884 l 615 818 z "},"s":{"ha":707,"x_min":80,"x_max":705,"o":"m 705 818 l 633 751 l 295 751 l 236 818 l 307 884 l 644 884 l 705 818 m 646 157 l 574 91 l 515 157 l 530 335 l 620 417 l 664 367 l 646 157 m 253 549 l 163 466 l 119 516 l 136 727 l 208 793 l 268 727 l 253 549 m 139 0 l 80 66 l 150 131 l 489 131 l 549 66 l 477 0 l 139 0 m 538 508 l 598 442 l 527 376 l 246 376 l 187 442 l 258 508 l 538 508 z "},"t":{"ha":707,"x_min":116,"x_max":735,"o":"m 424 61 l 354 -5 l 293 61 l 317 335 l 407 417 l 451 367 l 424 61 m 465 516 l 410 466 l 336 549 l 345 650 l 417 716 l 476 650 l 465 516 m 735 818 l 662 751 l 176 751 l 116 818 l 187 884 l 673 884 l 735 818 z "},"u":{"ha":707,"x_min":87,"x_max":710,"o":"m 646 157 l 574 91 l 515 157 l 530 335 l 620 417 l 664 367 l 646 157 m 87 157 l 146 91 l 218 157 l 234 335 l 159 417 l 105 367 l 87 157 m 230 0 l 170 66 l 241 131 l 489 131 l 549 66 l 477 0 l 230 0 m 678 516 l 624 466 l 549 549 l 567 751 l 710 884 l 678 516 m 150 884 l 270 751 l 253 549 l 163 466 l 119 516 l 150 884 z "},"v":{"ha":678,"x_min":78,"x_max":710,"o":"m 679 529 l 625 480 l 551 563 l 567 751 l 710 884 l 679 529 m 254 563 l 164 480 l 120 529 l 150 884 l 270 751 l 254 563 m 621 431 l 602 314 l 345 63 l 251 63 l 260 157 l 515 408 l 621 431 m 210 63 l 139 -4 l 78 63 l 106 381 l 160 431 l 235 347 l 210 63 z "},"w":{"ha":707,"x_min":76,"x_max":710,"o":"m 678 516 l 624 466 l 549 549 l 567 751 l 710 884 l 678 516 m 253 549 l 163 466 l 119 516 l 150 884 l 270 751 l 253 549 m 635 25 l 515 157 l 530 335 l 620 417 l 664 367 l 635 25 m 444 227 l 372 162 l 312 227 l 335 487 l 407 554 l 467 487 l 444 227 m 609 0 l 98 0 l 241 131 l 489 131 l 609 0 m 218 157 l 76 25 l 105 367 l 159 417 l 234 335 l 218 157 z "},"x":{"ha":678,"x_min":73,"x_max":710,"o":"m 419 466 l 432 611 l 634 884 l 710 884 l 698 755 l 486 466 l 419 466 m 303 466 l 139 755 l 150 884 l 227 884 l 383 611 l 370 466 l 303 466 m 366 417 l 354 271 l 152 0 l 73 0 l 85 129 l 299 417 l 366 417 m 482 417 l 644 129 l 633 0 l 557 0 l 403 273 l 415 417 l 482 417 z "},"y":{"ha":707,"x_min":119,"x_max":710,"o":"m 678 516 l 624 466 l 549 549 l 567 751 l 710 884 l 678 516 m 119 516 l 163 466 l 253 549 l 270 751 l 150 884 l 119 516 m 188 0 l 129 66 l 199 131 l 489 131 l 549 66 l 477 0 l 188 0 m 646 157 l 574 91 l 515 157 l 530 335 l 620 417 l 664 367 l 646 157 m 538 508 l 598 442 l 527 376 l 246 376 l 187 442 l 258 508 l 538 508 z "},"z":{"ha":707,"x_min":80,"x_max":705,"o":"m 705 818 l 633 751 l 270 751 l 150 884 l 644 884 l 705 818 m 621 624 l 503 467 l 384 455 l 385 524 l 537 721 l 630 721 l 621 624 m 372 321 l 251 162 l 153 162 l 160 253 l 297 429 l 367 436 l 372 321 m 617 0 l 139 0 l 80 66 l 150 131 l 497 131 l 617 0 z "},"{":{"ha":545,"x_min":68,"x_max":593,"o":"m 593 884 l 449 751 l 390 751 l 331 818 l 402 884 l 593 884 m 346 516 l 292 466 l 217 549 l 232 727 l 304 793 l 364 727 l 346 516 m 265 442 l 193 376 l 129 376 l 68 442 l 140 508 l 205 508 l 265 442 m 314 157 l 242 91 l 183 157 l 198 335 l 288 417 l 332 367 l 314 157 m 516 0 l 324 0 l 265 66 l 336 131 l 395 131 l 516 0 z "},"|":{"ha":438,"x_min":134,"x_max":361,"o":"m 134 -236 l 231 884 l 361 884 l 264 -236 l 134 -236 z "},"}":{"ha":545,"x_min":29,"x_max":556,"o":"m 359 818 l 287 751 l 227 751 l 106 884 l 298 884 l 359 818 m 426 549 l 336 466 l 290 516 l 308 727 l 381 793 l 441 727 l 426 549 m 556 442 l 482 376 l 418 376 l 359 442 l 429 508 l 494 508 l 556 442 m 391 157 l 319 91 l 259 157 l 277 367 l 332 417 l 407 335 l 391 157 m 293 66 l 221 0 l 29 0 l 173 131 l 232 131 l 293 66 z "},"~":{"ha":588,"x_min":88,"x_max":574,"o":"m 88 328 l 98 448 q 156 491 128 477 q 216 504 184 504 q 345 468 265 504 q 434 447 393 447 q 503 465 470 447 q 574 521 537 484 l 563 396 q 504 357 542 371 q 422 342 467 342 q 336 355 378 342 q 279 381 326 359 q 221 398 246 398 q 164 382 194 398 q 88 328 133 366 z "},"‰":{"ha":1408,"x_min":128,"x_max":1357,"o":"m 438 821 l 365 755 l 295 755 l 236 821 l 308 888 l 378 888 l 438 821 m 413 534 l 340 467 l 270 467 l 211 534 l 283 600 l 352 600 l 413 534 m 128 624 l 188 562 l 259 624 l 269 730 l 208 797 l 138 730 l 128 624 m 379 624 l 389 730 l 460 797 l 520 730 l 510 624 l 439 562 l 379 624 m 837 355 l 765 289 l 697 289 l 636 355 l 708 422 l 777 422 l 837 355 m 812 74 l 741 9 l 673 9 l 611 74 l 684 140 l 753 140 l 812 74 m 528 164 l 588 102 l 660 164 l 669 265 l 609 331 l 537 265 l 528 164 m 779 164 l 788 265 l 860 331 l 919 265 l 910 164 l 840 102 l 779 164 m 552 607 l 750 904 l 933 952 l 641 513 l 572 496 l 552 607 m 556 385 l 244 -83 l 212 96 l 428 422 l 544 453 l 556 385 m 1275 355 l 1203 289 l 1134 289 l 1074 355 l 1145 422 l 1215 422 l 1275 355 m 1250 74 l 1179 9 l 1110 9 l 1049 74 l 1121 140 l 1191 140 l 1250 74 m 966 164 l 1027 102 l 1097 164 l 1106 265 l 1047 331 l 975 265 l 966 164 m 1217 164 l 1226 265 l 1298 331 l 1357 265 l 1348 164 l 1278 102 l 1217 164 z "},"’":{"ha":250,"x_min":115,"x_max":263,"o":"m 246 641 l 115 641 l 131 818 l 202 884 l 263 818 l 246 641 z "},"“":{"ha":250,"x_min":121,"x_max":268,"o":"m 253 708 l 181 641 l 121 708 l 136 884 l 268 884 l 253 708 z "},"”":{"ha":429,"x_min":115,"x_max":442,"o":"m 426 641 l 293 641 l 309 818 l 381 884 l 442 818 l 426 641 m 246 641 l 115 641 l 131 818 l 202 884 l 263 818 l 246 641 z "},"•":{"ha":429,"x_min":121,"x_max":447,"o":"m 253 708 l 181 641 l 121 708 l 136 884 l 268 884 l 253 708 m 432 708 l 360 641 l 299 708 l 314 884 l 447 884 l 432 708 z "},"–":{"ha":648,"x_min":97,"x_max":629,"o":"m 98 442 q 192 629 107 552 q 385 707 277 707 q 559 638 490 707 q 629 466 629 568 q 628 442 629 449 q 533 254 617 332 q 338 177 449 177 q 167 246 236 177 q 97 417 97 316 q 98 442 97 433 z "},"—":{"ha":672,"x_min":37,"x_max":708,"o":"m 664 489 l 708 442 l 655 395 l 80 395 l 37 442 l 88 489 l 664 489 z "}}}
